<?xml version="1.0" encoding="utf-8"?>
<!-- Generator: Adobe Illustrator 24.2.0, SVG Export Plug-In . SVG Version: 6.00 Build 0)  -->
<svg version="1.1" id="Calque_1" xmlns="http://www.w3.org/2000/svg" xmlns:xlink="http://www.w3.org/1999/xlink" x="0px" y="0px"
	 viewBox="0 0 512 512" style="enable-background:new 0 0 512 512;" xml:space="preserve">
<style type="text/css">
	.st0{fill:#EC394B;}
	.st1{fill:#00959D;}
	.st2{fill:#24788A;}
</style>
<path d="M197.4,243.2c0.5,0.4,1,0.8,1.3,1.3c0.3,0.5,0.5,1,0.5,1.6c0,0.6-0.2,1.1-0.6,1.5c-0.4,0.4-0.9,0.6-1.5,0.6
	c-0.6,0-1.1-0.2-1.5-0.6c-0.4-0.4-0.6-0.9-0.6-1.5c0-0.3,0.1-0.6,0.2-0.9c0.1-0.3,0.3-0.5,0.6-0.7c0.1-0.1,0.3-0.3,0.4-0.5
	c0.1-0.2,0.2-0.4,0.1-0.7c0-0.2-0.1-0.3-0.3-0.5c-0.2-0.1-0.4-0.3-0.7-0.3c-0.3-0.1-0.6-0.2-0.9-0.2c-0.3-0.1-0.7-0.1-1-0.1
	c-0.5,0-0.9,0.1-1.3,0.3c-0.4,0.2-0.7,0.4-0.9,0.8c-0.2,0.3-0.3,0.7-0.3,1.2c0,0.5,0.2,1,0.5,1.5c0.3,0.6,0.7,1.1,1.2,1.7
	c0.5,0.5,1.1,1,1.7,1.5c0.6,0.5,1.2,1,1.8,1.5c0.6,0.5,1.1,1,1.6,1.5c0.5,0.5,0.9,1.1,1.2,1.7c0.3,0.6,0.5,1.3,0.5,2
	c0,0.9-0.2,1.8-0.6,2.4c-0.4,0.7-0.9,1.2-1.4,1.6c-0.6,0.4-1.3,0.7-2,0.9c-0.8,0.2-1.5,0.3-2.2,0.3c-1,0-1.9-0.1-2.6-0.4
	c-0.7-0.3-1.3-0.5-1.7-0.8c-0.5-0.4-1-0.8-1.3-1.3c-0.3-0.5-0.5-1-0.5-1.6c0-0.6,0.2-1.1,0.6-1.5c0.4-0.4,0.9-0.6,1.5-0.6
	c0.6,0,1.1,0.2,1.5,0.6c0.4,0.4,0.6,0.9,0.6,1.5c0,0.7-0.3,1.2-0.8,1.7c-0.1,0.1-0.3,0.3-0.4,0.5c-0.1,0.2-0.2,0.4-0.1,0.7
	c0,0.2,0.1,0.3,0.3,0.5c0.2,0.1,0.4,0.3,0.7,0.4c0.3,0.1,0.6,0.2,0.9,0.2c0.3,0,0.7,0.1,1,0.1c0.5,0,0.9-0.1,1.2-0.3
	c0.4-0.2,0.7-0.4,0.9-0.8c0.2-0.3,0.3-0.7,0.3-1.2c0-0.5-0.2-1-0.5-1.5c-0.3-0.6-0.7-1.1-1.3-1.6c-0.5-0.5-1.1-1-1.7-1.5
	c-0.6-0.5-1.2-1-1.8-1.5c-0.6-0.5-1.1-1-1.6-1.5c-0.5-0.5-0.9-1.1-1.2-1.7c-0.3-0.6-0.5-1.3-0.5-2c0-0.9,0.2-1.7,0.6-2.4
	c0.4-0.7,0.9-1.2,1.4-1.7c0.6-0.4,1.2-0.7,2-0.9c0.7-0.2,1.5-0.3,2.2-0.3c1,0,1.9,0.1,2.6,0.4C196.4,242.7,197,242.9,197.4,243.2z"
	/>
<path d="M209,247.7c0.7,0,1.4,0.2,2,0.5c0.6,0.3,1.1,0.8,1.6,1.3c0.4,0.6,0.8,1.3,1.1,2.1c0.3,0.8,0.4,1.8,0.4,2.8
	c0,1.1-0.1,2-0.4,2.9c-0.3,0.8-0.7,1.6-1.1,2.1c-0.5,0.6-1.1,1-1.8,1.3c-0.7,0.3-1.4,0.4-2.3,0.4c-0.6,0-1.1-0.2-1.6-0.5
	c-0.5-0.3-0.8-0.6-1.1-1v1.3v1.8v1.7c0,0.9-0.1,1.5-0.4,1.9c-0.3,0.4-0.8,0.5-1.5,0.5h-3.1v-0.2c0.2,0,0.4-0.1,0.5-0.2
	c0.1-0.1,0.2-0.3,0.2-0.5v-3.3v-1.9v-9v-2.4v-0.8c0-0.2-0.1-0.4-0.2-0.5c-0.1-0.1-0.3-0.2-0.5-0.2v-0.2h3.1c0.5,0,0.9,0.1,1.2,0.3
	c0.3,0.2,0.5,0.5,0.6,0.9c0.2-0.1,0.4-0.2,0.6-0.4c0.2-0.1,0.5-0.3,0.8-0.4c0.3-0.1,0.6-0.2,0.9-0.3
	C208.2,247.7,208.6,247.7,209,247.7z M207.3,260.5c0.7,0.1,1.3-0.4,1.7-1.4c0.4-1,0.6-2.6,0.6-4.8c0-1.1-0.1-2-0.2-2.7
	c-0.1-0.7-0.3-1.3-0.5-1.8c-0.2-0.5-0.5-0.8-0.7-1c-0.3-0.2-0.6-0.3-0.9-0.4c-0.3,0-0.6,0-0.9,0.1c-0.3,0.1-0.5,0.2-0.8,0.4
	c0.1,0.2,0.1,0.6,0.1,1v1.7v7.6c0.2,0.3,0.5,0.6,0.8,0.8C206.8,260.4,207,260.5,207.3,260.5z"/>
<path d="M310.4,247.7c1,0,1.8,0.2,2.6,0.5c0.8,0.4,1.4,0.8,2,1.4c0.5,0.6,1,1.3,1.2,2.1c0.3,0.8,0.4,1.7,0.4,2.6s-0.1,1.8-0.4,2.6
	c-0.3,0.8-0.7,1.5-1.2,2.1c-0.5,0.6-1.2,1.1-2,1.5c-0.8,0.4-1.6,0.5-2.6,0.5c-1,0-1.8-0.2-2.6-0.5c-0.8-0.4-1.4-0.8-2-1.5
	c-0.5-0.6-0.9-1.3-1.2-2.1c-0.3-0.8-0.4-1.7-0.4-2.6s0.1-1.8,0.4-2.6c0.3-0.8,0.7-1.5,1.2-2.1c0.5-0.6,1.2-1.1,2-1.4
	C308.5,247.8,309.4,247.7,310.4,247.7z M312.3,252.6c0-1.7-0.2-2.9-0.5-3.6c-0.3-0.8-0.8-1.1-1.5-1.1c-0.7,0-1.1,0.4-1.5,1.1
	c-0.3,0.8-0.5,2-0.5,3.6v1.8v1.8c0,1.7,0.2,2.9,0.5,3.6c0.3,0.8,0.8,1.1,1.5,1.1c0.7,0,1.1-0.4,1.5-1.1c0.3-0.8,0.5-2,0.5-3.6v-1.8
	V252.6z"/>
<path d="M236.9,260c-0.4,0.3-0.9,0.6-1.5,0.8c-0.6,0.2-1.2,0.4-1.8,0.4c-0.5,0-0.9-0.1-1.3-0.2c-0.4-0.1-0.8-0.3-1.1-0.6
	c-0.3-0.3-0.6-0.6-0.7-1.1c-0.2-0.4-0.3-1-0.3-1.6V250v-1.5c0-0.2-0.1-0.4-0.2-0.5c-0.1-0.1-0.3-0.2-0.5-0.2v-0.2
	c0.5,0,1.1-0.1,1.6-0.2c0.6-0.2,1.1-0.4,1.5-0.6c0.5-0.3,0.8-0.6,1.2-1c0.3-0.4,0.5-0.8,0.6-1.2h0.2v3h1.8v0.2h-1.8v0.7v1.9v7.8
	c0,0.6,0.1,1.1,0.2,1.4c0.1,0.3,0.3,0.5,0.6,0.6c0.2,0.1,0.5,0.1,0.8-0.1c0.3-0.1,0.6-0.2,0.8-0.4L236.9,260z"/>
<path d="M258.4,257v3.3c0,0.2,0.1,0.4,0.2,0.5c0.1,0.1,0.3,0.2,0.5,0.2v0.2h-0.4h-2.3h-3.1V261c0.2,0,0.4-0.1,0.5-0.2
	c0.1-0.1,0.2-0.3,0.2-0.5V257v-10.9v-3l-6.5,18l-6.5-18v15.4c0,0.7,0.2,1.3,0.7,1.8c0.5,0.5,1.1,0.7,1.8,0.7v0.1h-5.1V261
	c0.7,0,1.3-0.2,1.8-0.7c0.5-0.5,0.7-1.1,0.7-1.8v-15.8l0-0.1c-0.1-0.3-0.3-0.5-0.7-0.5V242h5.8v0.2c-0.3,0-0.5,0.2-0.5,0.5
	c0,0.1,0,0.1,0,0.2l4.2,11.7l4.2-11.7c0,0,0-0.1,0-0.2c0-0.1,0-0.3-0.1-0.4c-0.1-0.1-0.2-0.2-0.4-0.2V242h2.5h0.4h2.3h0.4v0.2
	c-0.2,0-0.4,0.1-0.5,0.2c-0.1,0.1-0.2,0.3-0.2,0.5v3v0.3V257z"/>
<path d="M266.9,261l-5.5-12.7c-0.2-0.3-0.4-0.5-0.7-0.5v-0.1h5.4v0.1c-0.3,0-0.4,0.1-0.4,0.4c0,0.1,0,0.2,0,0.2l3.3,7.6l2.4-5.7
	c0.1-0.2,0.2-0.5,0.2-0.7c0-0.5-0.2-0.9-0.5-1.3c-0.4-0.4-0.8-0.5-1.3-0.5v-0.1h4.8v0.1c-0.6,0-1.2,0.2-1.7,0.6
	c-0.5,0.4-0.8,0.9-1.1,1.5l-7.1,16.5c-0.3,0.6-0.7,1.2-1.2,1.6c-0.5,0.4-1.1,0.6-1.8,0.6c-0.5,0-0.9-0.1-1.3-0.3
	c-0.4-0.2-0.8-0.5-1.1-0.9c-0.3-0.4-0.6-0.8-0.7-1.3c-0.2-0.5-0.3-1-0.3-1.6c0-0.6,0.2-1.1,0.6-1.5c0.4-0.4,0.9-0.6,1.5-0.6
	s1.1,0.2,1.5,0.6c0.4,0.4,0.6,0.9,0.6,1.5c0,0.7-0.2,1.2-0.7,1.6c-0.1,0.1-0.1,0.1-0.2,0.2c-0.1,0.1-0.1,0.1-0.1,0.2
	c-0.2,0.2-0.3,0.4-0.3,0.7c0,0.2,0,0.4,0.1,0.6s0.2,0.3,0.3,0.4c0.2,0.1,0.3,0.2,0.5,0.2c0.3,0,0.5-0.1,0.7-0.2
	c0.2-0.1,0.5-0.3,0.6-0.5c0.2-0.2,0.4-0.4,0.5-0.6c0.1-0.2,0.3-0.4,0.4-0.6L266.9,261z"/>
<path d="M286.5,243.2c0.5,0.4,1,0.8,1.3,1.3c0.3,0.5,0.5,1,0.5,1.6c0,0.6-0.2,1.1-0.6,1.5c-0.4,0.4-0.9,0.6-1.5,0.6
	c-0.6,0-1.1-0.2-1.5-0.6c-0.4-0.4-0.6-0.9-0.6-1.5c0-0.3,0.1-0.6,0.2-0.9c0.1-0.3,0.3-0.5,0.6-0.7c0.1-0.1,0.3-0.3,0.4-0.5
	c0.1-0.2,0.2-0.4,0.1-0.7c0-0.2-0.1-0.3-0.3-0.5c-0.2-0.1-0.4-0.3-0.7-0.3c-0.3-0.1-0.6-0.2-0.9-0.2c-0.3-0.1-0.7-0.1-1-0.1
	c-0.5,0-0.9,0.1-1.3,0.3c-0.4,0.2-0.7,0.4-0.9,0.8c-0.2,0.3-0.3,0.7-0.3,1.2c0,0.5,0.2,1,0.5,1.5c0.3,0.6,0.7,1.1,1.2,1.7
	c0.5,0.5,1.1,1,1.7,1.5c0.6,0.5,1.2,1,1.8,1.5c0.6,0.5,1.1,1,1.6,1.5c0.5,0.5,0.9,1.1,1.2,1.7c0.3,0.6,0.5,1.3,0.5,2
	c0,0.9-0.2,1.8-0.6,2.4c-0.4,0.7-0.9,1.2-1.4,1.6c-0.6,0.4-1.3,0.7-2,0.9c-0.8,0.2-1.5,0.3-2.2,0.3c-1,0-1.9-0.1-2.6-0.4
	c-0.7-0.3-1.3-0.5-1.7-0.8c-0.5-0.4-1-0.8-1.3-1.3c-0.3-0.5-0.5-1-0.5-1.6c0-0.6,0.2-1.1,0.6-1.5c0.4-0.4,0.9-0.6,1.5-0.6
	c0.6,0,1.1,0.2,1.5,0.6c0.4,0.4,0.6,0.9,0.6,1.5c0,0.7-0.3,1.2-0.8,1.7c-0.1,0.1-0.3,0.3-0.4,0.5c-0.1,0.2-0.2,0.4-0.1,0.7
	c0,0.2,0.1,0.3,0.3,0.5c0.2,0.1,0.4,0.3,0.7,0.4c0.3,0.1,0.6,0.2,0.9,0.2c0.3,0,0.7,0.1,1,0.1c0.5,0,0.9-0.1,1.2-0.3
	c0.4-0.2,0.7-0.4,0.9-0.8c0.2-0.3,0.3-0.7,0.3-1.2c0-0.5-0.2-1-0.5-1.5c-0.3-0.6-0.7-1.1-1.3-1.6c-0.5-0.5-1.1-1-1.7-1.5
	c-0.6-0.5-1.2-1-1.8-1.5c-0.6-0.5-1.1-1-1.6-1.5c-0.5-0.5-0.9-1.1-1.2-1.7c-0.3-0.6-0.5-1.3-0.5-2c0-0.9,0.2-1.7,0.6-2.4
	c0.4-0.7,0.9-1.2,1.4-1.7c0.6-0.4,1.2-0.7,2-0.9c0.7-0.2,1.5-0.3,2.2-0.3c1,0,1.9,0.1,2.6,0.4C285.6,242.7,286.1,242.9,286.5,243.2z
	"/>
<path d="M302.2,260.8c0.1,0.1,0.3,0.2,0.5,0.2v0.2h-0.4h-2.3H297V261c0.2,0,0.4-0.1,0.5-0.2c0.1-0.1,0.2-0.3,0.2-0.5v-1.9v-7.8
	c0-0.6-0.1-1.1-0.3-1.4c-0.2-0.3-0.4-0.5-0.7-0.6c-0.3-0.1-0.6-0.1-0.9,0c-0.3,0.1-0.6,0.2-0.9,0.4v7.1v0.9v3.3
	c0,0.2,0.1,0.4,0.2,0.5c0.1,0.1,0.3,0.2,0.5,0.2v0.2h-0.4h-2.3h-3.1V261c0.2,0,0.4-0.1,0.5-0.2c0.1-0.1,0.2-0.3,0.2-0.5V257v-9v-1.9
	v-3.3c0-0.2-0.1-0.4-0.2-0.5c-0.1-0.1-0.3-0.2-0.5-0.2V242h3.1c0.7,0,1.2,0.2,1.5,0.5c0.3,0.4,0.4,1,0.4,1.9v1.7v1.8l0,0.9
	c0.7-0.5,1.5-0.8,2.4-1c0.8-0.2,1.6-0.2,2.3-0.1c0.7,0.1,1.3,0.5,1.8,1c0.5,0.5,0.7,1.4,0.7,2.4v7.6v1.5
	C302,260.5,302.1,260.7,302.2,260.8z"/>
<path d="M325.4,260c-0.4,0.3-0.9,0.6-1.5,0.8c-0.6,0.2-1.2,0.4-1.8,0.4c-0.5,0-0.9-0.1-1.3-0.2c-0.4-0.1-0.8-0.3-1.1-0.6
	c-0.3-0.3-0.6-0.6-0.7-1.1c-0.2-0.4-0.3-1-0.3-1.6V250v-1.5c0-0.2-0.1-0.4-0.2-0.5c-0.1-0.1-0.3-0.2-0.5-0.2v-0.2
	c0.5,0,1.1-0.1,1.6-0.2c0.6-0.2,1.1-0.4,1.5-0.6c0.5-0.3,0.8-0.6,1.2-1c0.3-0.4,0.5-0.8,0.6-1.2h0.2v3h1.8v0.2H323v0.7v1.9v7.8
	c0,0.6,0.1,1.1,0.2,1.4c0.1,0.3,0.3,0.5,0.6,0.6c0.2,0.1,0.5,0.1,0.8-0.1c0.3-0.1,0.6-0.2,0.8-0.4L325.4,260z"/>
<polygon class="st0" points="221.9,261.2 221.9,261.2 221.9,261.2 "/>
<path class="st0" d="M221.9,247.7L221.9,247.7c3.6,0,6.6,3,6.6,6.8c0,3.8-3,6.8-6.6,6.8l0,0c3.6,0,6.6-3,6.6-6.8
	C228.5,250.7,225.5,247.7,221.9,247.7z"/>
<path class="st0" d="M215.3,254.4c0-3.8,3-6.8,6.6-6.8l0,0C218.2,247.7,215.3,250.7,215.3,254.4c0,3.8,3,6.8,6.6,6.8l0,0
	C218.2,261.2,215.3,258.2,215.3,254.4z"/>
<path class="st1" d="M221.9,247.7v4.4c1.8,0,3.2,1.6,3.2,3.5c0,1.9-1.4,3.5-3.2,3.5l0.1,11.9c0,0,1.1-5,2.1-8.4
	c2.7-1,4.7-3.9,4.7-7.2C228.9,251.2,225.8,247.8,221.9,247.7z"/>
<path class="st2" d="M221.9,259.1c-1.8,0-3.2-1.6-3.2-3.5c0-1.9,1.4-3.5,3.2-3.5h0v-4.4c0,0,0,0,0,0c-3.9,0-7,3.4-7,7.6
	c0,3.3,2,6.2,4.7,7.2c1.1,3.4,2.5,8.4,2.5,8.4L221.9,259.1L221.9,259.1z"/>
</svg>
